<?xml version="1.0" encoding="UTF-8"?>
<svg width="228px" height="74px" viewBox="0 0 228 74" version="1.1" xmlns="http://www.w3.org/2000/svg" xmlns:xlink="http://www.w3.org/1999/xlink">
    <!-- Generator: sketchtool 50.2 (55047) - http://www.bohemiancoding.com/sketch -->
    <title>3A2B1B11-18A0-45A0-A4D4-74E99412F723@1,5x</title>
    <desc>Created with sketchtool.</desc>
    <defs>
        <filter x="-2.7%" y="-9.1%" width="105.5%" height="118.2%" filterUnits="objectBoundingBox" id="filter-1">
            <feOffset dx="0" dy="0" in="SourceAlpha" result="shadowOffsetOuter1"></feOffset>
            <feGaussianBlur stdDeviation="2" in="shadowOffsetOuter1" result="shadowBlurOuter1"></feGaussianBlur>
            <feColorMatrix values="0 0 0 0 0   0 0 0 0 0   0 0 0 0 0  0 0 0 0.5 0" type="matrix" in="shadowBlurOuter1" result="shadowMatrixOuter1"></feColorMatrix>
            <feMerge>
                <feMergeNode in="shadowMatrixOuter1"></feMergeNode>
                <feMergeNode in="SourceGraphic"></feMergeNode>
            </feMerge>
        </filter>
    </defs>
    <g id="R1-layer-map" stroke="none" stroke-width="1" fill="none" fill-rule="evenodd">
        <g id="slack-info-1" transform="translate(-74.000000, -189.000000)" fill-rule="nonzero">
            <g id="slack-icon" filter="url(#filter-1)" transform="translate(78.000000, 193.000000)">
                <path d="M78.2402004,25.95428 C78.2402004,19.43436 83.003487,14.88168 91.6597595,14.88168 C96.941523,14.88168 101.263487,16.56468 103.60501,18.21336 C103.94008,18.44876 104.537916,19.01988 104.179479,20.08204 C103.72008,21.22604 102.877555,22.94644 102.273106,24.06404 C101.921283,24.71524 101.022766,24.62944 100.562485,24.39668 C98.8946293,23.5532 96.1589579,22.12628 93.6459319,21.86316 C93.0095768,21.7940165 92.3693793,21.7663845 91.7294188,21.78044 C89.5161924,21.82972 87.6671343,22.59664 87.0159519,24.28184 C86.8883433,24.6006957 86.817186,24.9392451 86.8056513,25.2824 C86.7448096,27.50308 89.8415631,28.30608 93.5930261,28.94936 C100.567335,30.14176 105.843808,32.18248 105.843808,39.34656 C105.843808,45.43044 100.998958,50.92868 91.5063327,50.76016 C85.2484569,50.63388 80.8087776,48.52364 78.4297796,46.47588 C78.3486573,46.40636 77.4430862,45.48588 77.928497,44.37884 C78.484008,42.95368 79.4217635,41.3204 80.1575952,40.45316 C80.5667335,39.89612 81.6464529,39.80768 82.2076954,40.15484 C84.1687375,41.371 87.395992,43.32108 91.1161523,43.45044 C91.4097796,43.46056 91.7007615,43.46232 91.9864529,43.45484 C95.3327455,43.37388 97.3572745,42.10756 97.3149499,39.97444 C97.2787976,38.0952 94.6255711,36.9974 90.4006012,36.20276 C83.6621643,34.936 78.2410822,32.71928 78.2410822,25.95428 L78.2402004,25.95428 Z M139.457956,35.23784 C134.706132,35.29988 130.349339,36.59612 130.223687,40.30224 C130.222365,43.2432 132.612826,44.68772 135.967936,44.49852 C139.186373,44.1892 141.640762,42.79616 142.722244,40.94772 C143.122124,40.26264 143.182966,37.6992 143.158717,36.6036 C143.152545,36.3704 142.690501,35.92908 142.488136,35.84416 C141.478517,35.41956 140.731222,35.28844 139.457515,35.23696 L139.457956,35.23784 Z M123.646613,20.30424 C125.868657,18.31984 130.274389,15.23104 137.295872,15.39384 C146.561884,15.58612 151.456994,19.92144 151.912866,30.29224 C152.100681,34.56904 151.789419,46.49832 151.715351,49.47052 C151.704329,49.89688 151.559719,50.19168 150.983928,50.20268 C149.458036,50.26384 145.932745,50.23964 144.312946,50.21852 C143.495551,50.17892 143.400762,49.77412 143.39018,49.3504 C143.383126,49.0732 143.359319,48.25128 143.342124,47.58116 C143.332866,47.22564 142.998236,47.23576 142.912705,47.32684 C140.739158,49.643 137.179479,50.76148 133.394068,50.76148 C127.640561,50.76148 121.904689,47.3836 121.922325,40.69428 C121.93996,33.84348 126.807295,30.46428 132.154309,29.66744 C135.578196,29.1588 139.437675,29.61112 142.360281,30.77008 C142.547214,30.84488 142.929018,30.73664 142.932104,30.4722 C142.944008,29.59924 142.901683,27.9356 142.733707,27.14712 C142.304729,25.13808 140.625411,23.52152 137.097475,23.08592 C136.370902,22.9966 135.639479,22.96712 134.907174,23.0252 C132.102725,23.2452 128.727776,25.4276 127.33018,26.24468 C127.001283,26.43652 126.486333,26.29616 126.319679,26.08188 C125.504048,25.03028 123.453948,21.95468 123.292585,21.4632 C123.131222,20.97304 123.358717,20.56032 123.645731,20.30248 L123.646613,20.30424 Z M154.968176,33.0572 C154.913066,23.5026 161.583607,15.44224 172.41519,15.3714 C179.173908,15.3274 184.084008,18.3854 184.9499,19.82772 C185.125812,20.16652 185.035431,20.44944 184.913747,20.79044 C184.341483,21.99604 182.896273,24.3254 181.866373,25.6454 C181.427695,26.20772 180.951543,25.72592 180.398236,25.35852 C178.862645,24.33772 175.94489,23.08944 173.073427,23.08944 C167.863968,23.09032 163.984649,26.6552 164.027856,33.21384 C164.068417,39.5076 167.784168,42.96644 173.091503,43.09184 C175.865972,43.16136 178.554028,41.56988 180.00012,40.26616 C180.454228,39.8706 180.924208,40.0686 181.443126,40.4734 C182.461563,41.51224 183.922204,43.11604 184.732104,44.22 C185.262485,44.83336 184.865691,45.43352 184.67479,45.67464 C182.477435,48.44972 178.233507,50.78524 172.617114,50.81692 C160.857034,50.8992 155.023287,42.647 154.969058,33.05852 L154.968176,33.0572 Z M211.104329,50.38616 C211.656313,50.3448 217.546934,49.53344 219.35499,49.12028 C219.803808,49.0182 219.963407,48.64156 219.712545,48.26844 C218.702926,46.75748 216.048377,42.4666 213.268176,38.6254 C210.711062,35.09352 208.015952,31.98712 207.144329,30.79208 C206.931824,30.50168 206.943287,30.21568 207.174749,29.9904 C208.832906,28.3712 215.768858,21.5842 218.376673,18.7814 C219.386293,17.69108 218.78008,17.22204 217.922565,16.96728 C216.266172,16.47448 213.586934,15.86024 212.063246,15.53948 C211.420882,15.40396 210.647134,15.45148 210.085451,16.02788 C207.478076,18.45448 199.520601,26.42508 197.14513,28.80768 C196.717475,29.23756 196.468377,29.14208 196.466172,28.52784 C196.446774,23.93424 196.355952,4.26712 196.191503,1.03224 C196.18004,0.60456 195.664649,0.27984 195.374108,0.26444 C193.880401,0.18656 190.106894,0.16412 188.6198,0.25124 C188.203166,0.29832 187.80505,0.72204 187.768898,1.0802 C187.425892,6.25284 187.914389,44.22396 188.118076,49.53564 C188.132625,49.91976 188.419198,50.21764 188.784689,50.2392 C190.268257,50.325 193.937715,50.31928 195.650982,50.28716 C196.493948,50.28716 196.597114,49.6958 196.597114,49.6958 L196.724088,39.50672 C196.724088,39.50672 196.810942,39.05352 196.951583,38.90392 C197.555591,38.25492 199.226533,36.46764 199.938998,35.77684 C200.11006,35.61096 200.37988,35.62284 200.554469,35.85736 C201.400962,36.99696 203.81479,40.70176 206.052265,44.01056 C208.108096,47.05008 210.027255,49.74772 210.161283,49.93824 C210.470782,50.37824 210.832305,50.39584 211.10477,50.38748 L211.10477,50.38616 L211.104329,50.38616 Z M110.921443,50.35096 C111.439479,50.36812 115.36994,50.36372 117.111423,50.36152 C117.697796,50.37296 118.002445,49.92988 118.021844,49.53872 C118.391743,42.09128 118.233467,6.63344 117.9998,1.03444 C117.980401,0.55044 117.772745,0.36872 117.441643,0.32472 C115.947054,0.12496 111.699599,0.1716 110.338156,0.52712 C110.071864,0.5962 109.91491,0.79816 109.906533,1.05776 C109.573226,15.48976 109.798076,48.76256 109.868617,49.39264 C109.938717,50.0236 110.269379,50.32896 110.922325,50.35096 L110.921443,50.35096 Z" id="Shape" fill="#443642"></path>
                <path d="M5.73014028,35.5432 C3.30793587,35.56168 1.25607214,34.12112 0.499519038,31.87272 C0.471452805,31.7878061 0.445287317,31.7022782 0.421042084,31.6162 C-0.403406814,28.73684 1.19523046,25.7246 4.06052104,24.76012 L50.0180361,9.394 C50.5637197,9.23645187 51.1284337,9.15414218 51.6964729,9.14936 C54.1830461,9.13 56.2913427,10.60224 57.0664128,12.89816 L57.1351904,13.11992 C57.9949098,16.11896 55.8588377,18.79592 53.299519,19.65392 C53.2977555,19.65524 52.8321844,19.81232 7.59683367,35.22596 C6.99557116,35.4305174 6.36535439,35.5376212 5.73014028,35.5432 Z" id="Shape" fill="#70CADB"></path>
                <path d="M13.3904609,58.0998 C10.9492986,58.1174 8.89038076,56.69708 8.14264529,54.4808 C8.11426178,54.396491 8.08780204,54.3115491 8.06328657,54.22604 C7.22737475,51.31236 8.8242485,48.26844 11.6992385,47.30264 L57.658517,31.79572 C58.2523848,31.59772 58.8656513,31.49652 59.4824449,31.4908 C61.9302204,31.47232 64.0808417,32.9648 64.8395992,35.20616 L64.9101403,35.43936 C65.3541082,36.9886 65.0917836,38.72968 64.2091383,40.1038 C63.5513427,41.12548 61.4765531,42.02484 61.4765531,42.02484 L15.3426854,57.7676 C14.7134896,57.9801788 14.0546842,58.0925813 13.3904609,58.10068 L13.3904609,58.0998 Z" id="Shape" fill="#E01765"></path>
                <path d="M51.6484168,58.19792 C49.2045909,58.2213413 47.0234705,56.6719442 46.2454108,54.3598 L30.9071343,8.8902 L30.8304208,8.635 C29.9993587,5.7354 31.5975551,2.71084 34.4619639,1.74724 C35.0351102,1.55496 35.6276553,1.45464 36.2241683,1.44936 C37.1103407,1.44276 37.9678557,1.64208 38.7755511,2.04028 C40.1193352,2.70349415 41.1426557,3.87410297 41.6187976,5.29276 L56.9557515,50.7584 L57.0002806,50.90448 C57.8617635,53.91496 56.2670942,56.94128 53.4026854,57.90488 C52.8368857,58.0935276 52.2449313,58.19241 51.6484168,58.19792 Z" id="Shape" fill="#E8A723"></path>
                <path d="M28.8490982,65.85656 C26.4038626,65.879806 24.2217114,64.3290654 23.4438878,62.01536 L8.10957916,16.54752 C7.62971139,15.130828 7.73424991,13.5818167 8.40013747,12.2421396 C9.06602503,10.9024625 10.2385574,9.88217714 11.6591182,9.40632 C12.2257569,9.21727791 12.8185984,9.11809947 13.4160321,9.1124 C15.860269,9.08831773 18.0419941,10.6378915 18.8199198,12.95052 L34.1546693,58.42012 C34.634767,59.8374967 34.5298852,61.3872893 33.8631775,62.7273663 C33.1964698,64.0674433 32.0227623,65.0876047 30.6011623,65.56264 C30.0356248,65.7517822 29.4437597,65.8508231 28.8473347,65.85612 L28.8490982,65.85612 L28.8490982,65.85656 Z" id="Shape" fill="#3EB890"></path>
                <polygon id="Shape" fill="#CC2027" points="44.0868537 47.95824 54.7817635 44.30888 51.2855711 33.94688 40.5783166 37.55796 44.0868537 47.95824"></polygon>
                <polygon id="Shape" fill="#361238" points="21.3228056 55.726 32.0168337 52.07708 28.4941884 41.63588 17.7895792 45.24828 21.3228056 55.726"></polygon>
                <polygon id="Shape" fill="#65863A" points="36.4728257 25.388 47.1686172 21.74348 43.7134269 11.50248 32.9977956 15.0854"></polygon>
                <polygon id="Shape" fill="#1A937D" points="13.7061323 33.1452 24.4019238 29.50068 20.9044088 19.129 10.1887776 22.71148 13.7061323 33.1452"></polygon>
            </g>
        </g>
    </g>
</svg>