<?xml version="1.0" encoding="UTF-8"?>
<svg width="228px" height="69px" viewBox="0 0 228 69" version="1.1" xmlns="http://www.w3.org/2000/svg" xmlns:xlink="http://www.w3.org/1999/xlink">
    <!-- Generator: sketchtool 50.2 (55047) - http://www.bohemiancoding.com/sketch -->
    <title>AC3CC1C4-AB49-40F2-A34C-10632CF92F1B@1,5x</title>
    <desc>Created with sketchtool.</desc>
    <defs>
        <filter x="-2.7%" y="-9.8%" width="105.5%" height="121.3%" filterUnits="objectBoundingBox" id="filter-1">
            <feOffset dx="0" dy="0" in="SourceAlpha" result="shadowOffsetOuter1"></feOffset>
            <feGaussianBlur stdDeviation="2" in="shadowOffsetOuter1" result="shadowBlurOuter1"></feGaussianBlur>
            <feColorMatrix values="0 0 0 0 0   0 0 0 0 0   0 0 0 0 0  0 0 0 0.5 0" type="matrix" in="shadowBlurOuter1" result="shadowMatrixOuter1"></feColorMatrix>
            <feMerge>
                <feMergeNode in="shadowMatrixOuter1"></feMergeNode>
                <feMergeNode in="SourceGraphic"></feMergeNode>
            </feMerge>
        </filter>
        <linearGradient x1="50%" y1="0%" x2="50%" y2="100%" id="linearGradient-2">
            <stop stop-color="#0079BF" offset="0%"></stop>
            <stop stop-color="#0079BF" offset="100%"></stop>
        </linearGradient>
    </defs>
    <g id="R1-layer-map" stroke="none" stroke-width="1" fill="none" fill-rule="evenodd">
        <g id="trello-info-1" transform="translate(-75.000000, -187.000000)" fill-rule="nonzero">
            <g id="trello-logo-blue" filter="url(#filter-1)" transform="translate(79.000000, 191.000000)">
                <path d="M177.182511,45.7086963 C173.821807,47.0480252 171.16981,51.6752057 167.136421,54.3051342 C166.886316,54.4682127 166.636211,54.5497519 166.469474,54.5497519 C166.136,54.5497519 165.719158,54.2235949 165.719158,52.7558886 C165.719158,47.7004557 167.386526,45.2542785 168.803789,41.6665519 C173.722526,29.1910481 182.142737,18.5094076 189.645895,6.8492962 C190.229474,5.95236456 190.562947,4.97389367 190.562947,3.91388354 C190.562947,3.0169519 190.229474,2.28309873 189.812632,1.38616709 C189.479158,0.652313924 187.978526,0 186.311158,0 C185.394105,0 184.560421,0.0815392405 183.476632,0.0815392405 C179.558316,0.0815392405 178.724632,5.70774684 177.807579,7.17545316 C171.554947,17.5309367 164.385263,30.3325975 160.717053,39.3834532 C159.912658,41.4124274 159.043766,43.4414017 158.383324,45.5237682 C154.75839,46.5504194 152.042751,51.5353988 147.794947,54.3051342 C147.544842,54.4682127 147.294737,54.5497519 147.128,54.5497519 C146.794526,54.5497519 146.377684,54.2235949 146.377684,52.7558886 C146.377684,47.7004557 148.045053,45.2542785 149.462316,41.6665519 C154.381053,29.1910481 162.801263,18.5094076 170.304421,6.8492962 C170.888,5.95236456 171.221474,4.97389367 171.221474,3.91388354 C171.221474,3.0169519 170.888,2.28309873 170.471158,1.38616709 C170.137684,0.652313924 168.637053,0 166.969684,0 C166.052632,0 165.218947,0.0815392405 164.135158,0.0815392405 C160.216842,0.0815392405 159.383158,5.70774684 158.466105,7.17545316 C152.213474,17.5309367 145.043789,30.3325975 141.375579,39.3834532 C141.083957,40.1190287 140.783858,40.8546046 140.488288,41.5927244 C140.397016,41.6404063 140.30381,41.6921137 140.208421,41.7480911 C135.956632,44.1942684 132.371789,48.5158481 127.202947,51.4512608 C126.202526,52.0220354 123.117895,54.1420557 120.616842,54.1420557 C120.033263,54.1420557 119.533053,53.9789772 119.032842,53.7343595 C118.282526,53.4082025 117.532211,51.858957 117.532211,51.3697215 C117.532211,50.9620253 117.615579,50.8804861 118.449263,50.3912506 C125.785684,46.0696709 131.788211,39.8726886 136.957053,33.6757063 C138.874526,31.3926076 141.375579,26.9079494 141.375579,23.6463797 C141.375579,21.5263595 140.625263,19.0801823 138.040842,18.1832506 C136.206737,17.5309367 134.122526,17.2047797 132.455158,17.2047797 C128.036632,17.2047797 124.785263,19.1617215 122.951158,21.0371241 C121.083937,22.9867715 119.277813,24.9887053 117.599818,27.0610118 C115.84658,25.5805815 113.373657,24.9510076 111.029474,24.9510076 C108.278316,24.9510076 103.109474,28.2941165 100.441684,30.2510582 C100.024842,30.5772152 99.7747368,30.7402937 99.608,30.7402937 C99.5246316,30.7402937 99.4412632,30.6587544 99.4412632,30.4956759 C99.4412632,30.4141367 99.608,29.6802835 99.608,28.3756557 C99.608,27.2341063 99.3578947,25.7664 98.2741053,23.9725367 C98.024,23.5648405 96.5233684,22.6679089 94.6892632,22.6679089 C92.4383158,22.6679089 90.3541053,23.727919 90.3541053,24.8694684 C90.3541053,25.6848608 91.1044211,26.0110177 91.1044211,26.7448709 C91.1044211,27.1525671 90.7709474,29.0279696 90.2707368,30.8218329 C88.8534737,36.0403443 87.1027368,41.1773165 85.2686316,46.3142886 C84.2682105,49.168162 80.9334737,51.6958785 80.9334737,54.7943696 C80.9334737,55.7728405 81.6004211,57.0774684 82.5174737,58.0559392 C84.0181053,59.6867241 84.9351579,60.2574987 86.2690526,60.2574987 C86.8526316,60.2574987 87.5195789,60.0944203 88.1031579,59.6051848 C89.3536842,58.5451747 90.0206316,57.4851646 90.3541053,56.0174582 C92.5216842,46.3958278 98.7743158,39.8726886 105.693895,35.5511089 C108.028211,34.0834025 111.196211,32.534157 111.613053,32.534157 C112.040484,32.534157 112.708974,32.7270598 113.382577,32.9150623 C111.448295,36.0008021 109.881037,39.255015 108.861895,42.726562 C108.528421,43.8681114 108.361684,44.9281215 108.361684,46.0696709 C108.361684,47.9450734 108.778526,49.9020152 109.445474,51.7774177 C110.362526,54.3866734 111.863158,56.6697722 113.947368,57.7297823 C117.782316,59.6867241 120.533474,60.7467342 123.034526,60.7467342 C124.451789,60.7467342 125.535579,60.5021165 126.702737,59.8498025 C132.182282,56.8175561 135.541812,54.5171336 137.967673,52.4738591 C138.034189,54.5455625 138.451728,55.6933382 139.958316,57.2405468 C141.458947,58.7897924 143.793263,60.1759595 146.877895,60.8282734 C147.378105,60.9098127 147.878316,60.9913519 148.378526,60.9913519 C151.907763,60.9913519 155.304197,58.1857485 157.923178,55.4044852 C158.226406,56.0114066 158.667053,56.5907501 159.299789,57.2405468 C160.800421,58.7897924 163.134737,60.1759595 166.219368,60.8282734 C166.719579,60.9098127 167.219789,60.9913519 167.72,60.9913519 C171.854149,60.9913519 175.806069,57.1415621 178.539568,53.9907512 C179.450601,55.8337499 181.996459,57.6559005 185.060632,59.1159494 C185.894316,59.5236456 186.894737,59.7682633 187.811789,59.7682633 C191.396632,59.7682633 193.981053,56.9143899 195.981895,54.7943696 C201.150737,49.2497013 203.985263,42.4004051 206.152842,33.7572456 C206.319579,33.1049316 206.569684,32.8603139 206.903158,32.8603139 C207.736842,32.8603139 208.820632,32.8603139 209.987789,32.6972354 C212.238737,32.3710785 213.989474,31.6372253 216.073684,31.3110684 C217.324211,31.0664506 217.157474,30.6587544 218.324632,30.2510582 C219.158316,29.9249013 219.825263,29.5987443 219.825263,28.7833519 C219.825263,27.3971848 217.240842,25.9294785 213.322526,25.9294785 C210.237895,25.9294785 208.403789,26.1740962 207.153263,26.1740962 C205.235789,26.1740962 204.735579,25.6033215 203.485053,22.4232911 C203.485053,22.4232911 204.735579,25.6033215 203.485053,22.4232911 C203.234947,21.7709772 202.984842,21.4448203 202.234526,20.7925063 C200.483789,19.3248 198.316211,18.8355646 196.565474,18.8355646 C192.397053,18.8355646 188.812211,22.9940658 186.311158,26.5002532 C185.727579,27.3156456 184.893895,27.9679595 184.310316,28.8648911 C180.876101,33.9031879 177.58803,39.5846991 177.182511,45.7086963 Z M70.5957895,17.9386329 C72.68,17.9386329 73.8471579,17.7755544 74.0972632,17.7755544 C74.3473684,17.7755544 74.5141053,17.8570937 74.5141053,18.1017114 C74.5141053,18.2647899 74.4307368,18.5094076 73.8471579,19.7324962 C68.7616842,30.4141367 65.2602105,41.2588557 62.1755789,53.2451241 C62.0922105,53.571281 61.8421053,54.7943696 61.8421053,56.0174582 C61.8421053,57.1590076 62.1755789,58.3820962 63.3427368,59.0344101 C65.5936842,60.339038 67.4277895,60.9098127 68.6783158,60.9098127 C70.5124211,60.9098127 71.4294737,59.7682633 71.4294737,57.8928608 C71.4294737,56.2620759 71.5128421,54.5497519 71.7629474,53.2451241 C74.0972632,41.2588557 77.5987368,31.881843 83.0176842,22.0971342 C85.6021053,17.4493975 85.9355789,17.2047797 85.9355789,16.7970835 C85.9355789,16.6340051 85.8522105,16.3893873 85.6854737,16.1447696 C89.0202105,15.4109165 93.0218947,14.921681 96.6901053,14.921681 C97.1069474,14.921681 98.7743158,15.4924557 99.0244211,15.7370734 C99.608,16.3078481 100.191579,16.8786228 101.192,16.8786228 C102.025684,16.8786228 103.442947,16.3078481 103.943158,15.9816911 C105.110316,15.1662987 105.693895,14.2693671 105.693895,12.8016608 C105.693895,11.4154937 100.441684,7.99084557 96.7734737,7.99084557 C92.2715789,7.99084557 88.1865263,8.56162025 84.3515789,9.29547342 C82.6842105,9.62163038 76.6816842,10.518562 72.3465263,10.518562 C68.1781053,10.518562 68.4282105,9.94778734 66.6774737,9.94778734 C65.6770526,9.94778734 65.1768421,10.4370228 64.76,10.844719 C64.3431579,11.2524152 64.0930526,12.8832 64.0930526,14.3509063 C64.0930526,15.0847595 64.0930526,15.6555342 64.5098947,16.1447696 C65.7604211,17.6124759 68.1781053,17.9386329 70.5957895,17.9386329 C70.5957895,17.9386329 68.1781053,17.9386329 70.5957895,17.9386329 Z M132.371789,24.5433114 C132.371789,25.2771646 132.121684,25.7664 131.121263,27.3156456 C130.120842,28.8648911 130.537684,28.8648911 129.287158,30.4956759 C126.869474,33.6757063 123.868211,36.8557367 119.949895,40.3619241 C118.866105,41.3403949 118.699368,41.3403949 118.532632,41.3403949 C118.449263,41.3403949 118.282526,41.2588557 118.282526,41.0957772 C118.282526,40.8511595 118.365895,40.5250025 119.199579,38.8126785 C121.784,33.5126278 124.952,30.0064405 128.453474,26.5817924 C130.370947,24.7063899 131.538105,24.0540759 131.954947,24.0540759 C132.205053,24.0540759 132.371789,24.1356152 132.371789,24.5433114 C132.371789,24.5433114 132.371789,24.1356152 132.371789,24.5433114 Z M196.482105,26.6633316 C196.565474,26.6633316 196.648842,26.7448709 196.732211,26.9079494 C196.815579,27.1525671 196.982316,27.3971848 197.399158,27.7233418 C197.732632,27.9679595 197.732632,29.1095089 197.732632,30.0064405 C197.732632,37.9157468 193.147368,44.4388861 188.645474,51.0435646 C187.645053,52.5112709 187.061474,52.7558886 186.561263,52.7558886 C186.144421,52.7558886 185.477474,51.6958785 185.227368,51.0435646 C184.893895,50.1466329 184.810526,49.0866228 184.810526,48.6789266 C184.810526,42.3188658 190.979789,32.8603139 195.064842,27.6418025 C195.731789,26.7448709 196.232,26.6633316 196.482105,26.6633316 C196.482105,26.6633316 196.232,26.6633316 196.482105,26.6633316 Z" id="Type" fill="#0079BF"></path>
                <g id="Mark" transform="translate(0.000000, 9.008439)">
                    <rect id="Board" fill="url(#linearGradient-2)" x="0" y="0" width="52.6315789" height="51.4767932" rx="6.6"></rect>
                    <rect id="Right-List" fill="#FFFFFF" x="29.7368421" y="6.69198312" width="16.0526316" height="22.521097" rx="3.168"></rect>
                    <rect id="Left-List" fill="#FFFFFF" x="6.84210526" y="6.69198312" width="16.0526316" height="35.3902954" rx="3.168"></rect>
                </g>
            </g>
        </g>
    </g>
</svg>